<svg id="Layer_1" data-name="Layer 1" xmlns="http://www.w3.org/2000/svg" viewBox="0 0 910.24 764.91"><defs><style>.cls-1{fill:#00aeef;}.cls-1,.cls-2,.cls-8{stroke:#231f20;stroke-miterlimit:10;}.cls-1,.cls-2{stroke-width:20px;}.cls-2,.cls-4{fill:#fbb040;}.cls-3,.cls-5{fill:#f7941d;}.cls-4{font-size:184px;stroke:#fbb040;stroke-linejoin:round;stroke-width:7px;font-family:Abalone-Smile, Abalone Smile;letter-spacing:-0.01em;}.cls-5{stroke:#f7941d;letter-spacing:-0.09em;}.cls-6{letter-spacing:-0.01em;}.cls-7{fill:#231f20;}.cls-8{fill:#be1e2d;stroke-width:12px;}.cls-9{fill:#fff;}</style></defs><circle class="cls-1" cx="151.15" cy="292.51" r="141.15"/><path class="cls-2" d="M824.41,956.64l110.44,362.6c2.8,7.38,20.49,7.47,23,0l115-362.86a8.43,8.43,0,0,0-8-11.16H832.29A8.43,8.43,0,0,0,824.41,956.64Z" transform="translate(-797.45 -569.9)"/><polygon class="cls-3" points="71.53 437.1 164.73 437.1 248.94 437.03 189.46 624.59 109.84 624.59 52.84 437.1 71.53 437.1"/><text class="cls-4" transform="translate(361.37 401.38)">SCOOP<tspan class="cls-5"><tspan x="27.14" y="201">T</tspan><tspan class="cls-6" x="103.5" y="201">O-GO</tspan></tspan></text><path d="M920.17,826.5c2.2-5.75,7.72-10,13.5-11.71,3.53-1,12.28-2.22,14.48,1.55,4.87,8.32,17.84.78,13-7.57-5.86-10-19.83-11.19-30.06-8.8a36.19,36.19,0,0,0-25.33,22.54c-3.45,9,11,12.93,14.46,4Z" transform="translate(-797.45 -569.9)"/><path d="M969.24,895.14c24.32,12.3,52.94,4.9,67.9-18,5.3-8.1-7.68-15.62-13-7.57a36.6,36.6,0,0,1-47.38,12.59c-8.6-4.34-16.2,8.59-7.57,12.95Z" transform="translate(-797.45 -569.9)"/><path d="M997.52,814c2.52-5.64,6.8-11.08,13.25-12.25,3.65-.66,10.31.11,11.61,4.36,2.82,9.2,17.3,5.28,14.46-4-3.27-10.7-14.75-16.27-25.46-15.51-11.88.85-22,9.16-26.81,19.82-1.67,3.72-1.05,8,2.69,10.26,3.19,1.91,8.61,1,10.26-2.69Z" transform="translate(-797.45 -569.9)"/><path class="cls-7" d="M939.24,685.31c-9.64-32.58-19.88-75.39,9.61-101.32,3.63-3.19-1.69-8.48-5.31-5.3C911.93,606.49,921.59,652.1,932,687.3c1.36,4.62,8.6,2.66,7.23-2Z" transform="translate(-797.45 -569.9)"/><path class="cls-8" d="M978.3,676.52c6.08,26.21-21.81,48.71-48.71,48.71a48.71,48.71,0,0,1-48.71-48.71c0-26.9,16.46-35.07,48.71-24.95C942.73,655.69,968.6,634.66,978.3,676.52Z" transform="translate(-797.45 -569.9)"/><path class="cls-7" d="M947.45,578.71c4.83,0,4.83-7.5,0-7.5s-4.83,7.5,0,7.5Z" transform="translate(-797.45 -569.9)"/><path class="cls-7" d="M951.52,585.09c4.82,0,4.83-7.5,0-7.5s-4.84,7.5,0,7.5Z" transform="translate(-797.45 -569.9)"/><path class="cls-7" d="M953,577.4c4.83,0,4.84-7.5,0-7.5s-4.83,7.5,0,7.5Z" transform="translate(-797.45 -569.9)"/><path class="cls-7" d="M949.53,580.13c4.83,0,4.84-7.5,0-7.5s-4.83,7.5,0,7.5Z" transform="translate(-797.45 -569.9)"/><path class="cls-7" d="M955.73,581.83c4.83,0,4.84-7.5,0-7.5s-4.83,7.5,0,7.5Z" transform="translate(-797.45 -569.9)"/><path class="cls-9" d="M951.72,666.16l.27.09c.3.11.06.06-.09,0,.17.11.38.18.56.28s.38.22.56.34.47.41.57.41l-.1-.08.1.08.28.24c.19.16.37.33.55.51a15.48,15.48,0,0,1,1.11,1.18l.25.3.14.18.13.17c.08.11.15.22.23.32.29.43.57.86.83,1.31.12.22.24.44.35.66l.15.33c0,.06.22.45.08.16s0,.09,0,.15l.12.32c.07.23.14.45.19.68a1.9,1.9,0,0,0,2.31,1.31,1.92,1.92,0,0,0,1.31-2.31,15.9,15.9,0,0,0-3.49-6.23,12.22,12.22,0,0,0-5.47-4,1.88,1.88,0,0,0-2.3,1.31,1.9,1.9,0,0,0,1.31,2.3Z" transform="translate(-797.45 -569.9)"/><path class="cls-9" d="M963.21,683.13a1.88,1.88,0,0,0,0-3.75,1.88,1.88,0,0,0,0,3.75Z" transform="translate(-797.45 -569.9)"/></svg>